<svg xmlns="http://www.w3.org/2000/svg" width="200.544" height="18.666" viewBox="0 0 200.544 18.666">
  <g id="Group_10" data-name="Group 10" transform="translate(-1192 559.589)">
    <path id="Path_33" data-name="Path 33" d="M1477.558,465.821a6.624,6.624,0,0,1-4.811-1.71,7.085,7.085,0,0,1,.074-9.4,6.837,6.837,0,0,1,4.909-1.71,6.482,6.482,0,0,1,4.774,1.71,6.092,6.092,0,0,1,1.735,4.528,6.482,6.482,0,0,1-1.784,4.811A6.663,6.663,0,0,1,1477.558,465.821Zm.1-9.93a2.532,2.532,0,0,0-2.08.911,4.09,4.09,0,0,0-.738,2.608c0,2.35.948,3.519,2.842,3.519,1.809,0,2.707-1.206,2.707-3.617C1480.388,457.036,1479.478,455.891,1477.657,455.891Z" transform="translate(-260.9 -1007.015)" fill="#316ab1"/>
    <path id="_1" data-name="1" d="M2765.416,465.526h-3.765v-6.977q0-2.658-1.956-2.658a1.785,1.785,0,0,0-1.513.8,3.245,3.245,0,0,0-.591,1.993v6.841h-3.765v-7.05c0-1.723-.652-2.584-1.932-2.584a1.81,1.81,0,0,0-1.538.763,3.289,3.289,0,0,0-.59,2.079v6.792H2746V453.3h3.765V455.2h.049a4.671,4.671,0,0,1,3.961-2.2,3.529,3.529,0,0,1,3.544,2.276,4.538,4.538,0,0,1,4.109-2.276q3.987,0,3.986,4.922Z" transform="translate(-1520.213 -1007.015)" fill="#316ab1"/>
    <path id="_2" data-name="2" d="M4518.713,460.481h-7.974c.124,1.772,1.243,2.67,3.359,2.67a6.535,6.535,0,0,0,3.544-.96v2.719a9.334,9.334,0,0,1-4.4.911A5.7,5.7,0,0,1,4507,459.6a6.561,6.561,0,0,1,1.772-4.823,5.893,5.893,0,0,1,4.343-1.772,5.332,5.332,0,0,1,4.134,1.587,6.071,6.071,0,0,1,1.464,4.307Zm-3.495-2.313c0-1.747-.7-2.621-2.128-2.621a1.992,1.992,0,0,0-1.563.751,3.387,3.387,0,0,0-.812,1.87Z" transform="translate(-3259.544 -1007.015)" fill="#316ab1"/>
    <path id="_3" data-name="3" d="M11611.164,1178.937a2.216,2.216,0,0,1-1.549-.578,1.9,1.9,0,0,1,.012-2.818,2.354,2.354,0,0,1,1.6-.541,2.293,2.293,0,0,1,1.588.554,1.952,1.952,0,0,1-.012,2.83A2.382,2.382,0,0,1,11611.164,1178.937Z" transform="translate(-10274.157 -1720.132)" fill="#316ab1"/>
    <path id="_4" data-name="4" d="M12137.99,465.083a7.471,7.471,0,0,1-3.691.738,6.2,6.2,0,0,1-4.553-1.71,5.864,5.864,0,0,1-1.748-4.4,6.492,6.492,0,0,1,1.871-4.909,6.906,6.906,0,0,1,5-1.8,6.557,6.557,0,0,1,3.125.566v3.211a4.278,4.278,0,0,0-2.635-.886,3.483,3.483,0,0,0-2.582.947,3.549,3.549,0,0,0-.949,2.621,3.484,3.484,0,0,0,.912,2.547,3.341,3.341,0,0,0,2.5.923,4.975,4.975,0,0,0,2.756-.886Z" transform="translate(-10786.772 -1007.015)" fill="#316ab1"/>
    <path id="_5" data-name="5" d="M13088.557,465.821a6.626,6.626,0,0,1-4.811-1.71,7.1,7.1,0,0,1,.063-9.4,6.872,6.872,0,0,1,4.908-1.71,6.465,6.465,0,0,1,4.775,1.71,6.093,6.093,0,0,1,1.734,4.528,6.435,6.435,0,0,1-1.785,4.811A6.631,6.631,0,0,1,13088.557,465.821Zm.1-9.93a2.527,2.527,0,0,0-2.078.911,4.078,4.078,0,0,0-.752,2.608c0,2.35.959,3.519,2.854,3.519,1.8,0,2.709-1.206,2.709-3.617C13091.389,457.036,13090.477,455.891,13088.656,455.891Z" transform="translate(-11729.034 -1007.015)" fill="#316ab1"/>
    <path id="_6" data-name="6" d="M14375.416,465.526h-3.752v-6.977q0-2.658-1.957-2.658a1.791,1.791,0,0,0-1.525.8,3.237,3.237,0,0,0-.578,1.993v6.841h-3.777v-7.05q0-2.584-1.92-2.584a1.815,1.815,0,0,0-1.551.763,3.371,3.371,0,0,0-.578,2.079v6.792H14356V453.3h3.777V455.2h.049a4.631,4.631,0,0,1,3.951-2.2,3.508,3.508,0,0,1,3.543,2.276,4.538,4.538,0,0,1,4.109-2.276q3.987,0,3.986,4.922Z" transform="translate(-12987.36 -1007.015)" fill="#316ab1"/>
    <path id="_7" data-name="7" d="M5645.814,16.672h-.05V18.1H5642V0h3.765V7.715h.05a4.492,4.492,0,0,1,3.986-2.141,4.376,4.376,0,0,1,3.642,1.624,7.015,7.015,0,0,1,1.28,4.442,7.558,7.558,0,0,1-1.5,4.9,4.847,4.847,0,0,1-3.986,1.858A3.876,3.876,0,0,1,5645.814,16.672Zm-.1-5.155v1.255a2.843,2.843,0,0,0,.677,1.956,2.217,2.217,0,0,0,1.747.775,2.308,2.308,0,0,0,1.993-1,4.741,4.741,0,0,0,.714-2.818,3.863,3.863,0,0,0-.652-2.375,2.189,2.189,0,0,0-1.857-.849,2.42,2.42,0,0,0-1.883.849A3.2,3.2,0,0,0,5645.716,11.517Z" transform="translate(-4380.579 -559.589)" fill="#e75922"/>
    <path id="_8" data-name="8" d="M6792.086,465.526h-3.568v-1.76h-.049a4.008,4.008,0,0,1-3.643,2.055,3.785,3.785,0,0,1-2.8-1.009,3.643,3.643,0,0,1-1.022-2.695c0-2.375,1.415-3.74,4.221-4.11l3.322-.431c0-1.341-.727-2.006-2.179-2.006a7.486,7.486,0,0,0-4.158,1.292v-2.842a9.449,9.449,0,0,1,2.166-.714,11.033,11.033,0,0,1,2.485-.308q5.222,0,5.229,5.217Zm-3.544-4.971v-.824l-2.228.283c-1.23.16-1.833.714-1.833,1.661a1.376,1.376,0,0,0,.443,1.058,1.738,1.738,0,0,0,1.218.418,2.216,2.216,0,0,0,1.723-.738A2.62,2.62,0,0,0,6788.542,460.555Z" transform="translate(-5505.564 -1007.015)" fill="#e75922"/>
    <path id="_9" data-name="9" d="M7830.976,489.23H7820v-1.575l6.141-7.875H7820.6V477h10.323v1.87l-5.82,7.567h5.87Z" transform="translate(-6531.78 -1030.72)" fill="#e75922"/>
    <path id="_10" data-name="10" d="M8814.086,465.526h-3.568v-1.76h-.049a4.012,4.012,0,0,1-3.654,2.055,3.778,3.778,0,0,1-2.793-1.009,3.643,3.643,0,0,1-1.021-2.695q0-3.562,4.221-4.11l3.322-.431c0-1.341-.727-2.006-2.18-2.006a7.463,7.463,0,0,0-4.158,1.292v-2.842a9.543,9.543,0,0,1,2.154-.714,11.219,11.219,0,0,1,2.5-.308q5.224,0,5.229,5.217Zm-3.543-4.971v-.824l-2.227.283c-1.23.16-1.834.714-1.834,1.661a1.37,1.37,0,0,0,.443,1.058,1.727,1.727,0,0,0,1.205.418,2.225,2.225,0,0,0,1.734-.738A2.673,2.673,0,0,0,8810.543,460.555Z" transform="translate(-7502.686 -1007.015)" fill="#e75922"/>
    <path id="_11" data-name="11" d="M9884.086,465.526h-3.58v-1.76h-.051a3.977,3.977,0,0,1-3.641,2.055,3.775,3.775,0,0,1-2.793-1.009,3.6,3.6,0,0,1-1.021-2.695q0-3.562,4.207-4.11l3.322-.431c0-1.341-.725-2.006-2.176-2.006a7.455,7.455,0,0,0-4.148,1.292v-2.842a9.543,9.543,0,0,1,2.154-.714,11.219,11.219,0,0,1,2.5-.308q5.224,0,5.229,5.217Zm-3.557-4.971v-.824l-2.213.283q-1.846.24-1.848,1.661a1.383,1.383,0,0,0,.443,1.058,1.787,1.787,0,0,0,1.219.418,2.225,2.225,0,0,0,1.734-.738A2.664,2.664,0,0,0,9880.529,460.555Z" transform="translate(-8559.521 -1007.015)" fill="#e75922"/>
    <path id="_12" data-name="12" d="M11023.984,463.617a3.154,3.154,0,0,0-1.588-.369,2.3,2.3,0,0,0-1.932.9,3.965,3.965,0,0,0-.687,2.449v5.844H11016v-12.23h3.777v2.276h.049a3.256,3.256,0,0,1,3.225-2.486,2.733,2.733,0,0,1,.934.135Z" transform="translate(-9688.457 -1013.929)" fill="#e75922"/>
    <g id="Group_7" data-name="Group 7" transform="translate(1192 -554.372)">
      <path id="Path_26" data-name="Path 26" d="M112,424h4.343v2.867L112,430.091Z" transform="translate(-110.622 -424)" fill="#2e72bb" fill-rule="evenodd"/>
      <path id="Path_27" data-name="Path 27" d="M957.343,424H953v2.867l4.343,3.224Z" transform="translate(-941.274 -424)" fill="#2e72bb" fill-rule="evenodd"/>
      <path id="Path_28" data-name="Path 28" d="M8.785,607,0,613.349H1.71v4.823H5.438v-5.057L8.687,610.7l3.347,2.387V618.2h3.728v-4.836h1.883Z" transform="translate(0 -604.748)" fill="#e75922" fill-rule="evenodd"/>
    </g>
    <path id="Path_31" data-name="Path 31" d="M15880.932,171.209a.246.246,0,0,1-.014.1.1.1,0,0,1-.012.062c0,.012-.012.025-.025.037s-.012.012-.021.012h-.643v2.03a.047.047,0,0,1-.012.037c0,.012-.025.025-.035.025a.2.2,0,0,1-.088.012.34.34,0,0,1-.123.012.363.363,0,0,1-.121-.012c-.027,0-.062,0-.074-.012a.068.068,0,0,1-.051-.025c0-.012-.012-.025-.012-.037v-2.03h-.627c-.012,0-.027-.012-.037-.012s-.012-.025-.012-.037-.014-.037-.025-.062v-.2c.012-.025.012-.049.025-.074a.042.042,0,0,1,.049-.037h1.785c.01,0,.01,0,.021.012a.026.026,0,0,1,.025.025.163.163,0,0,1,.012.074A.218.218,0,0,1,15880.932,171.209Z" transform="translate(-14491.621 -728.485)" fill="#e75922"/>
    <path id="_1-2" data-name="1" d="M16062.939,173.449a.047.047,0,0,1-.012.037c0,.012-.012.025-.037.025-.01.012-.035.012-.072.012a.387.387,0,0,1-.125.012.249.249,0,0,1-.107-.012c-.039,0-.062,0-.076-.012s-.035-.012-.035-.025a.042.042,0,0,1-.014-.037v-2.055h-.012l-.727,2.055c0,.012-.012.037-.025.037a.15.15,0,0,1-.049.037c-.023,0-.049.012-.074.012h-.232c-.025-.012-.049-.012-.074-.025a.086.086,0,0,1-.049-.025c-.014-.012-.014-.025-.025-.037l-.7-2.055h0v2.055a.042.042,0,0,1-.014.037c-.012.012-.021.025-.037.025a.143.143,0,0,1-.072.012.621.621,0,0,1-.246,0,.154.154,0,0,1-.074-.012c-.012,0-.023-.012-.037-.025a.047.047,0,0,1-.012-.037V171.2a.273.273,0,0,1,.049-.148.2.2,0,0,1,.148-.049h.332a.654.654,0,0,1,.16.012.4.4,0,0,1,.109.049.221.221,0,0,1,.074.086,1.437,1.437,0,0,1,.063.135l.541,1.513h.014l.553-1.5a.9.9,0,0,1,.061-.148.172.172,0,0,1,.074-.086.19.19,0,0,1,.086-.049.459.459,0,0,1,.135-.012h.346a.183.183,0,0,1,.086.012.2.2,0,0,1,.061.037.269.269,0,0,1,.037.062.219.219,0,0,1,.012.086Z" transform="translate(-14670.395 -728.485)" fill="#e75922"/>
  </g>
</svg>
